<svg xmlns="http://www.w3.org/2000/svg" width="24" height="24" viewBox="0 0 24 24" fill="none" stroke="currentColor" stroke-width="2" stroke-linecap="round" stroke-linejoin="round">
  <!-- Brain/AI icon -->
  <path d="M9.5 2A2.5 2.5 0 0 1 12 4.5v15a2.5 2.5 0 0 1-2.5 2.5A2.5 2.5 0 0 1 7 19.5v-15A2.5 2.5 0 0 1 9.5 2z"/>
  <path d="M14.5 2A2.5 2.5 0 0 0 12 4.5v15a2.5 2.5 0 0 0 2.5 2.5A2.5 2.5 0 0 0 17 19.5v-15A2.5 2.5 0 0 0 14.5 2z"/>
  <!-- Neural network connections -->
  <circle cx="6" cy="8" r="1"/>
  <circle cx="18" cy="8" r="1"/>
  <circle cx="6" cy="16" r="1"/>
  <circle cx="18" cy="16" r="1"/>
  <circle cx="12" cy="12" r="1.5"/>
  <!-- Connection lines -->
  <line x1="6" y1="8" x2="12" y2="12"/>
  <line x1="18" y1="8" x2="12" y2="12"/>
  <line x1="6" y1="16" x2="12" y2="12"/>
  <line x1="18" y1="16" x2="12" y2="12"/>
</svg>